<svg width="22" height="22" viewBox="0 0 22 22" fill="none" xmlns="http://www.w3.org/2000/svg">
<path fill-rule="evenodd" clip-rule="evenodd" d="M0 11C0 4.92486 4.92486 0 11 0C17.0751 0 22 4.92486 22 11C22 17.0751 17.0751 22 11 22C4.92488 22 0 17.0751 0 11ZM16.6346 8.62203C17.0775 8.18486 17.0853 7.4725 16.6522 7.02566C16.2115 6.57093 15.4838 6.56524 15.036 7.01303L9.44009 12.6089L6.87902 10.0479C6.42422 9.59307 5.68336 9.60456 5.24288 10.0732C4.81741 10.526 4.83297 11.236 5.27784 11.6697L9.38965 15.6776C9.41691 15.7042 9.46042 15.704 9.48751 15.6773L16.6346 8.62203Z" fill="#BFD4BD"/>
</svg>
